<svg xmlns="http://www.w3.org/2000/svg" width="900" height="1600" viewBox="0 0 900 1600" preserveAspectRatio="xMidYMid slice">
  <defs>
    <filter id="bark" x="-20%" y="-20%" width="140%" height="140%">
      <feTurbulence type="fractalNoise" baseFrequency="0.012 0.055" numOctaves="4" seed="23"/>
      <feColorMatrix type="matrix" values="
        0.18 0 0 0 0.01
        0 0.34 0 0 0.05
        0 0 0.14 0 0.01
        0 0 0 1 0"/>
      <feComponentTransfer>
        <feFuncR type="gamma" amplitude="1.1" exponent="1.35" offset="0"/>
        <feFuncG type="gamma" amplitude="1.2" exponent="1.2" offset="0"/>
        <feFuncB type="gamma" amplitude="0.9" exponent="1.5" offset="0"/>
      </feComponentTransfer>
    </filter>
    <linearGradient id="shade" x1="0" x2="1">
      <stop offset="0" stop-color="#061509"/>
      <stop offset=".22" stop-color="#17351b"/>
      <stop offset=".48" stop-color="#0b2612"/>
      <stop offset=".74" stop-color="#244322"/>
      <stop offset="1" stop-color="#08170b"/>
    </linearGradient>
  </defs>
  <rect width="900" height="1600" fill="#0a1c0d"/>
  <rect width="900" height="1600" fill="url(#shade)" opacity=".88"/>
  <rect x="-40" y="-20" width="980" height="1640" filter="url(#bark)" opacity=".78"/>
  <g opacity=".28" fill="none" stroke="#38583a">
    <path d="M90 0 C40 230 150 410 80 650 S120 1130 60 1600" stroke-width="34"/>
    <path d="M285 0 C340 260 230 490 315 760 S250 1230 310 1600" stroke-width="25"/>
    <path d="M520 0 C455 180 585 440 515 700 S590 1170 530 1600" stroke-width="31"/>
    <path d="M760 0 C820 260 710 500 795 820 S720 1280 790 1600" stroke-width="27"/>
  </g>
</svg>
